<mxfile host="app.diagrams.net" modified="2024-03-18T10:07:25.147Z" agent="Mozilla/5.0 (Windows NT 10.0; Win64; x64) AppleWebKit/537.36 (KHTML, like Gecko) Chrome/122.0.0.0 Safari/537.36" etag="ynmbdE2BXfOu3JSh5URP" version="24.0.7" type="device">
  <diagram name="Page-1" id="10hST1IfLA0Klw8C7HWJ">
    <mxGraphModel dx="1050" dy="530" grid="1" gridSize="10" guides="1" tooltips="1" connect="1" arrows="1" fold="1" page="1" pageScale="1" pageWidth="1169" pageHeight="827" math="0" shadow="0">
      <root>
        <mxCell id="0" />
        <mxCell id="1" parent="0" />
        <mxCell id="y_JjsBuyh9uuxKm56c8F-1" value="Actor" style="shape=umlActor;verticalLabelPosition=bottom;verticalAlign=top;html=1;" vertex="1" parent="1">
          <mxGeometry x="120" y="40" width="40" height="60" as="geometry" />
        </mxCell>
        <mxCell id="y_JjsBuyh9uuxKm56c8F-2" value="" style="html=1;points=[[0,0,0,0,5],[0,1,0,0,-5],[1,0,0,0,5],[1,1,0,0,-5]];perimeter=orthogonalPerimeter;outlineConnect=0;targetShapes=umlLifeline;portConstraint=eastwest;newEdgeStyle={&quot;curved&quot;:0,&quot;rounded&quot;:0};" vertex="1" parent="1">
          <mxGeometry x="135" y="130" width="10" height="300" as="geometry" />
        </mxCell>
        <mxCell id="y_JjsBuyh9uuxKm56c8F-7" value="API Gateway" style="shape=umlLifeline;perimeter=lifelinePerimeter;whiteSpace=wrap;html=1;container=1;dropTarget=0;collapsible=0;recursiveResize=0;outlineConnect=0;portConstraint=eastwest;newEdgeStyle={&quot;edgeStyle&quot;:&quot;elbowEdgeStyle&quot;,&quot;elbow&quot;:&quot;vertical&quot;,&quot;curved&quot;:0,&quot;rounded&quot;:0};" vertex="1" parent="1">
          <mxGeometry x="337" y="40" width="100" height="400" as="geometry" />
        </mxCell>
        <mxCell id="y_JjsBuyh9uuxKm56c8F-8" value="" style="html=1;points=[[0,0,0,0,5],[0,1,0,0,-5],[1,0,0,0,5],[1,1,0,0,-5]];perimeter=orthogonalPerimeter;outlineConnect=0;targetShapes=umlLifeline;portConstraint=eastwest;newEdgeStyle={&quot;curved&quot;:0,&quot;rounded&quot;:0};" vertex="1" parent="y_JjsBuyh9uuxKm56c8F-7">
          <mxGeometry x="45" y="90" width="10" height="240" as="geometry" />
        </mxCell>
        <mxCell id="y_JjsBuyh9uuxKm56c8F-11" value="Identity Service" style="shape=umlLifeline;perimeter=lifelinePerimeter;whiteSpace=wrap;html=1;container=1;dropTarget=0;collapsible=0;recursiveResize=0;outlineConnect=0;portConstraint=eastwest;newEdgeStyle={&quot;edgeStyle&quot;:&quot;elbowEdgeStyle&quot;,&quot;elbow&quot;:&quot;vertical&quot;,&quot;curved&quot;:0,&quot;rounded&quot;:0};" vertex="1" parent="1">
          <mxGeometry x="487" y="40" width="100" height="400" as="geometry" />
        </mxCell>
        <mxCell id="y_JjsBuyh9uuxKm56c8F-12" value="" style="html=1;points=[[0,0,0,0,5],[0,1,0,0,-5],[1,0,0,0,5],[1,1,0,0,-5]];perimeter=orthogonalPerimeter;outlineConnect=0;targetShapes=umlLifeline;portConstraint=eastwest;newEdgeStyle={&quot;curved&quot;:0,&quot;rounded&quot;:0};" vertex="1" parent="y_JjsBuyh9uuxKm56c8F-11">
          <mxGeometry x="45" y="120" width="10" height="210" as="geometry" />
        </mxCell>
        <mxCell id="y_JjsBuyh9uuxKm56c8F-13" value="WatchList Service" style="shape=umlLifeline;perimeter=lifelinePerimeter;whiteSpace=wrap;html=1;container=1;dropTarget=0;collapsible=0;recursiveResize=0;outlineConnect=0;portConstraint=eastwest;newEdgeStyle={&quot;edgeStyle&quot;:&quot;elbowEdgeStyle&quot;,&quot;elbow&quot;:&quot;vertical&quot;,&quot;curved&quot;:0,&quot;rounded&quot;:0};" vertex="1" parent="1">
          <mxGeometry x="638" y="40" width="100" height="400" as="geometry" />
        </mxCell>
        <mxCell id="y_JjsBuyh9uuxKm56c8F-14" value="" style="html=1;points=[[0,0,0,0,5],[0,1,0,0,-5],[1,0,0,0,5],[1,1,0,0,-5]];perimeter=orthogonalPerimeter;outlineConnect=0;targetShapes=umlLifeline;portConstraint=eastwest;newEdgeStyle={&quot;curved&quot;:0,&quot;rounded&quot;:0};" vertex="1" parent="y_JjsBuyh9uuxKm56c8F-13">
          <mxGeometry x="45" y="210" width="10" height="120" as="geometry" />
        </mxCell>
        <mxCell id="y_JjsBuyh9uuxKm56c8F-16" value="Message queue" style="shape=umlLifeline;perimeter=lifelinePerimeter;whiteSpace=wrap;html=1;container=1;dropTarget=0;collapsible=0;recursiveResize=0;outlineConnect=0;portConstraint=eastwest;newEdgeStyle={&quot;edgeStyle&quot;:&quot;elbowEdgeStyle&quot;,&quot;elbow&quot;:&quot;vertical&quot;,&quot;curved&quot;:0,&quot;rounded&quot;:0};" vertex="1" parent="1">
          <mxGeometry x="778" y="40" width="100" height="400" as="geometry" />
        </mxCell>
        <mxCell id="y_JjsBuyh9uuxKm56c8F-17" value="" style="html=1;points=[[0,0,0,0,5],[0,1,0,0,-5],[1,0,0,0,5],[1,1,0,0,-5]];perimeter=orthogonalPerimeter;outlineConnect=0;targetShapes=umlLifeline;portConstraint=eastwest;newEdgeStyle={&quot;curved&quot;:0,&quot;rounded&quot;:0};" vertex="1" parent="y_JjsBuyh9uuxKm56c8F-16">
          <mxGeometry x="45" y="160" width="10" height="170" as="geometry" />
        </mxCell>
        <mxCell id="y_JjsBuyh9uuxKm56c8F-18" style="edgeStyle=orthogonalEdgeStyle;rounded=0;orthogonalLoop=1;jettySize=auto;html=1;curved=0;exitX=1;exitY=0;exitDx=0;exitDy=5;exitPerimeter=0;entryX=0;entryY=0;entryDx=0;entryDy=5;entryPerimeter=0;" edge="1" parent="1">
          <mxGeometry relative="1" as="geometry">
            <mxPoint x="397" y="160" as="sourcePoint" />
            <mxPoint x="537" y="160" as="targetPoint" />
          </mxGeometry>
        </mxCell>
        <mxCell id="y_JjsBuyh9uuxKm56c8F-20" value="Sends credentials" style="edgeLabel;html=1;align=center;verticalAlign=middle;resizable=0;points=[];" vertex="1" connectable="0" parent="y_JjsBuyh9uuxKm56c8F-18">
          <mxGeometry x="-0.1457" y="-1" relative="1" as="geometry">
            <mxPoint x="7" y="-16" as="offset" />
          </mxGeometry>
        </mxCell>
        <mxCell id="y_JjsBuyh9uuxKm56c8F-26" style="edgeStyle=orthogonalEdgeStyle;rounded=0;orthogonalLoop=1;jettySize=auto;html=1;curved=0;entryX=0;entryY=0;entryDx=0;entryDy=5;entryPerimeter=0;endArrow=open;endFill=0;" edge="1" parent="1" source="y_JjsBuyh9uuxKm56c8F-12" target="y_JjsBuyh9uuxKm56c8F-17">
          <mxGeometry relative="1" as="geometry">
            <Array as="points">
              <mxPoint x="780" y="205" />
              <mxPoint x="780" y="205" />
            </Array>
          </mxGeometry>
        </mxCell>
        <mxCell id="y_JjsBuyh9uuxKm56c8F-27" value="Request create watchlist for user" style="edgeLabel;html=1;align=center;verticalAlign=middle;resizable=0;points=[];" vertex="1" connectable="0" parent="y_JjsBuyh9uuxKm56c8F-26">
          <mxGeometry x="0.2512" y="2" relative="1" as="geometry">
            <mxPoint x="-25" y="-23" as="offset" />
          </mxGeometry>
        </mxCell>
        <mxCell id="y_JjsBuyh9uuxKm56c8F-28" style="edgeStyle=orthogonalEdgeStyle;rounded=0;orthogonalLoop=1;jettySize=auto;html=1;curved=0;entryX=1;entryY=0;entryDx=0;entryDy=5;entryPerimeter=0;endArrow=open;endFill=0;" edge="1" parent="1" source="y_JjsBuyh9uuxKm56c8F-17" target="y_JjsBuyh9uuxKm56c8F-14">
          <mxGeometry relative="1" as="geometry">
            <Array as="points">
              <mxPoint x="787" y="255" />
              <mxPoint x="787" y="255" />
            </Array>
          </mxGeometry>
        </mxCell>
        <mxCell id="y_JjsBuyh9uuxKm56c8F-29" value="Create watchlist for user" style="edgeLabel;html=1;align=center;verticalAlign=middle;resizable=0;points=[];" vertex="1" connectable="0" parent="y_JjsBuyh9uuxKm56c8F-28">
          <mxGeometry x="0.08" y="2" relative="1" as="geometry">
            <mxPoint x="4" y="-17" as="offset" />
          </mxGeometry>
        </mxCell>
        <mxCell id="y_JjsBuyh9uuxKm56c8F-32" value="Alt" style="shape=umlFrame;whiteSpace=wrap;html=1;pointerEvents=0;recursiveResize=0;container=1;collapsible=0;width=50;" vertex="1" parent="1">
          <mxGeometry x="110" y="170" width="450" height="170" as="geometry" />
        </mxCell>
        <mxCell id="y_JjsBuyh9uuxKm56c8F-36" value="Registration Page" style="shape=umlLifeline;perimeter=lifelinePerimeter;whiteSpace=wrap;html=1;container=1;dropTarget=0;collapsible=0;recursiveResize=0;outlineConnect=0;portConstraint=eastwest;newEdgeStyle={&quot;edgeStyle&quot;:&quot;elbowEdgeStyle&quot;,&quot;elbow&quot;:&quot;vertical&quot;,&quot;curved&quot;:0,&quot;rounded&quot;:0};" vertex="1" parent="1">
          <mxGeometry x="200" y="40" width="100" height="400" as="geometry" />
        </mxCell>
        <mxCell id="y_JjsBuyh9uuxKm56c8F-37" value="" style="html=1;points=[[0,0,0,0,5],[0,1,0,0,-5],[1,0,0,0,5],[1,1,0,0,-5]];perimeter=orthogonalPerimeter;outlineConnect=0;targetShapes=umlLifeline;portConstraint=eastwest;newEdgeStyle={&quot;curved&quot;:0,&quot;rounded&quot;:0};" vertex="1" parent="y_JjsBuyh9uuxKm56c8F-36">
          <mxGeometry x="45" y="90" width="10" height="300" as="geometry" />
        </mxCell>
        <mxCell id="y_JjsBuyh9uuxKm56c8F-41" style="edgeStyle=orthogonalEdgeStyle;rounded=0;orthogonalLoop=1;jettySize=auto;html=1;curved=0;dashed=1;" edge="1" parent="1" source="y_JjsBuyh9uuxKm56c8F-8" target="y_JjsBuyh9uuxKm56c8F-36">
          <mxGeometry relative="1" as="geometry">
            <Array as="points">
              <mxPoint x="320" y="330" />
              <mxPoint x="320" y="330" />
            </Array>
          </mxGeometry>
        </mxCell>
        <mxCell id="y_JjsBuyh9uuxKm56c8F-42" value="Show user" style="edgeLabel;html=1;align=center;verticalAlign=middle;resizable=0;points=[];" vertex="1" connectable="0" parent="y_JjsBuyh9uuxKm56c8F-41">
          <mxGeometry x="-0.2272" y="-2" relative="1" as="geometry">
            <mxPoint x="-11" y="-8" as="offset" />
          </mxGeometry>
        </mxCell>
        <mxCell id="y_JjsBuyh9uuxKm56c8F-44" value="" style="endArrow=none;startArrow=none;endFill=0;startFill=0;endSize=8;html=1;verticalAlign=bottom;dashed=1;labelBackgroundColor=none;dashPattern=10 10;rounded=0;exitX=-0.002;exitY=0.549;exitDx=0;exitDy=0;exitPerimeter=0;entryX=1.006;entryY=0.549;entryDx=0;entryDy=0;entryPerimeter=0;" edge="1" parent="1" source="y_JjsBuyh9uuxKm56c8F-32" target="y_JjsBuyh9uuxKm56c8F-32">
          <mxGeometry width="160" relative="1" as="geometry">
            <mxPoint x="200" y="490" as="sourcePoint" />
            <mxPoint x="360" y="490" as="targetPoint" />
          </mxGeometry>
        </mxCell>
        <mxCell id="y_JjsBuyh9uuxKm56c8F-45" style="edgeStyle=orthogonalEdgeStyle;rounded=0;orthogonalLoop=1;jettySize=auto;html=1;curved=0;dashed=1;" edge="1" parent="1" source="y_JjsBuyh9uuxKm56c8F-12" target="y_JjsBuyh9uuxKm56c8F-8">
          <mxGeometry relative="1" as="geometry">
            <Array as="points">
              <mxPoint x="470" y="300" />
              <mxPoint x="470" y="300" />
            </Array>
          </mxGeometry>
        </mxCell>
        <mxCell id="y_JjsBuyh9uuxKm56c8F-46" value="Registration fails" style="edgeLabel;html=1;align=center;verticalAlign=middle;resizable=0;points=[];" vertex="1" connectable="0" parent="y_JjsBuyh9uuxKm56c8F-45">
          <mxGeometry x="-0.2114" y="-3" relative="1" as="geometry">
            <mxPoint x="-12" y="-12" as="offset" />
          </mxGeometry>
        </mxCell>
        <mxCell id="y_JjsBuyh9uuxKm56c8F-47" style="edgeStyle=orthogonalEdgeStyle;rounded=0;orthogonalLoop=1;jettySize=auto;html=1;curved=0;dashed=1;" edge="1" parent="1" source="y_JjsBuyh9uuxKm56c8F-12" target="y_JjsBuyh9uuxKm56c8F-8">
          <mxGeometry relative="1" as="geometry">
            <Array as="points">
              <mxPoint x="470" y="200" />
              <mxPoint x="470" y="200" />
            </Array>
          </mxGeometry>
        </mxCell>
        <mxCell id="y_JjsBuyh9uuxKm56c8F-48" value="Registration success" style="edgeLabel;html=1;align=center;verticalAlign=middle;resizable=0;points=[];" vertex="1" connectable="0" parent="y_JjsBuyh9uuxKm56c8F-47">
          <mxGeometry x="-0.2686" relative="1" as="geometry">
            <mxPoint x="-14" y="-12" as="offset" />
          </mxGeometry>
        </mxCell>
        <mxCell id="y_JjsBuyh9uuxKm56c8F-49" style="edgeStyle=orthogonalEdgeStyle;rounded=0;orthogonalLoop=1;jettySize=auto;html=1;curved=0;dashed=1;" edge="1" parent="1" source="y_JjsBuyh9uuxKm56c8F-8" target="y_JjsBuyh9uuxKm56c8F-36">
          <mxGeometry relative="1" as="geometry">
            <Array as="points">
              <mxPoint x="320" y="220" />
              <mxPoint x="320" y="220" />
            </Array>
          </mxGeometry>
        </mxCell>
        <mxCell id="y_JjsBuyh9uuxKm56c8F-50" value="Show success message" style="edgeLabel;html=1;align=center;verticalAlign=middle;resizable=0;points=[];" vertex="1" connectable="0" parent="y_JjsBuyh9uuxKm56c8F-49">
          <mxGeometry x="-0.2272" y="4" relative="1" as="geometry">
            <mxPoint x="-12" y="-17" as="offset" />
          </mxGeometry>
        </mxCell>
        <mxCell id="y_JjsBuyh9uuxKm56c8F-51" style="edgeStyle=orthogonalEdgeStyle;rounded=0;orthogonalLoop=1;jettySize=auto;html=1;curved=0;exitX=1;exitY=0;exitDx=0;exitDy=5;exitPerimeter=0;entryX=0;entryY=0;entryDx=0;entryDy=5;entryPerimeter=0;" edge="1" parent="1" source="y_JjsBuyh9uuxKm56c8F-2" target="y_JjsBuyh9uuxKm56c8F-37">
          <mxGeometry relative="1" as="geometry" />
        </mxCell>
        <mxCell id="y_JjsBuyh9uuxKm56c8F-52" value="Register" style="edgeLabel;html=1;align=center;verticalAlign=middle;resizable=0;points=[];" vertex="1" connectable="0" parent="y_JjsBuyh9uuxKm56c8F-51">
          <mxGeometry x="-0.264" y="1" relative="1" as="geometry">
            <mxPoint x="12" y="-12" as="offset" />
          </mxGeometry>
        </mxCell>
        <mxCell id="y_JjsBuyh9uuxKm56c8F-53" style="edgeStyle=orthogonalEdgeStyle;rounded=0;orthogonalLoop=1;jettySize=auto;html=1;curved=0;exitX=1;exitY=0;exitDx=0;exitDy=5;exitPerimeter=0;" edge="1" parent="1" source="y_JjsBuyh9uuxKm56c8F-37" target="y_JjsBuyh9uuxKm56c8F-8">
          <mxGeometry relative="1" as="geometry">
            <Array as="points">
              <mxPoint x="255" y="150" />
            </Array>
          </mxGeometry>
        </mxCell>
        <mxCell id="y_JjsBuyh9uuxKm56c8F-54" value="Register user" style="edgeLabel;html=1;align=center;verticalAlign=middle;resizable=0;points=[];" vertex="1" connectable="0" parent="y_JjsBuyh9uuxKm56c8F-53">
          <mxGeometry x="0.3352" y="2" relative="1" as="geometry">
            <mxPoint x="-15" y="-8" as="offset" />
          </mxGeometry>
        </mxCell>
      </root>
    </mxGraphModel>
  </diagram>
</mxfile>
